<svg xmlns="http://www.w3.org/2000/svg" viewBox="0 0 1091 459" role="img" aria-label="Luth stylisé">
  <defs>
    <radialGradient id="paperGlow" cx="52%" cy="44%" r="66%">
      <stop offset="0" stop-color="#f4ecdc" stop-opacity="0.55"/>
      <stop offset="1" stop-color="#f8f2ea" stop-opacity="0"/>
    </radialGradient>
    <linearGradient id="staffLine" x1="0" x2="1">
      <stop offset="0" stop-color="#d8c8aa" stop-opacity="0.3"/>
      <stop offset="0.5" stop-color="#d2c1a2" stop-opacity="0.58"/>
      <stop offset="1" stop-color="#d8c8aa" stop-opacity="0.18"/>
    </linearGradient>
  </defs>

  <rect width="1091" height="459" fill="#f8f2ea"/>
  <rect width="1091" height="459" fill="url(#paperGlow)"/>

  <g stroke="url(#staffLine)" stroke-width="1.35" fill="none" opacity="0.95">
    <path d="M64 217 C205 196 333 238 476 219 C543 210 607 210 674 219 C811 238 925 196 1068 217"/>
    <path d="M64 247 C205 226 333 268 476 249 C543 240 607 240 674 249 C811 268 925 226 1068 247"/>
    <path d="M64 277 C205 256 333 298 476 279 C543 270 607 270 674 279 C811 298 925 256 1068 277"/>
    <path d="M64 307 C205 286 333 328 476 309 C543 300 607 300 674 309 C811 328 925 286 1068 307"/>
    <path d="M64 337 C205 316 333 358 476 339 C543 330 607 330 674 339 C811 358 925 316 1068 337"/>
  </g>

  <g transform="translate(478 38)" stroke="#c4ac88" stroke-width="2" fill="none" opacity="0.82">
    <path d="M86 153 C47 148 14 177 5 218 C-10 280 20 353 86 353 C152 353 182 280 167 218 C158 177 123 148 86 153Z" fill="rgba(205,185,149,0.17)"/>
    <path d="M86 153 C45 165 28 213 41 247 C48 267 68 279 86 279 C104 279 124 267 131 247 C144 213 127 165 86 153Z" fill="rgba(205,185,149,0.16)"/>
    <path d="M66 183 C38 197 24 228 29 257"/>
    <path d="M106 183 C134 197 148 228 143 257"/>
    <circle cx="86" cy="239" r="28" fill="rgba(248,242,234,0.3)"/>
    <circle cx="86" cy="239" r="19" stroke-dasharray="4 4" opacity="0.7"/>
    <circle cx="86" cy="239" r="37" opacity="0.42"/>

    <path d="M76 154 V36 H100 V154" fill="rgba(205,185,149,0.16)"/>
    <path d="M78 36 C75 18 72 12 62 13 C55 14 53 26 63 31 H78"/>
    <path d="M98 36 C101 18 104 12 114 13 C121 14 123 26 113 31 H98"/>
    <path d="M62 13 H114"/>
    <path d="M76 51 H100 M76 66 H100 M76 81 H100 M76 96 H100 M76 111 H100 M76 126 H100 M76 141 H100"/>
    <path d="M80 39 V154 M86 39 V154 M92 39 V154 M98 39 V154"/>

    <path d="M34 236 C15 248 13 266 28 281"/>
    <path d="M138 236 C157 248 159 266 144 281"/>
    <path d="M53 247 C28 241 16 230 12 217"/>
    <path d="M119 247 C144 241 156 230 160 217"/>
  </g>
</svg>
